<svg width="1030" height="200" viewBox="0 0 1030 200" fill="none" xmlns="http://www.w3.org/2000/svg">
<path d="M100 80C104.47 80.0001 108.596 81.4677 111.926 83.9453C125.309 94.0231 141.956 100 160 100C174.571 100 188.233 96.1037 200 89.2969V200H100C96.4883 200 93.019 199.817 89.6006 199.464C96.2178 187.819 100 174.351 100 160C100 141.972 94.0342 125.338 83.9727 111.961C81.4789 108.625 80 104.486 80 100C80 88.9543 88.9543 80 100 80Z" fill="#4900C8"/>
<path d="M200 54.6377L184.977 63.3281L183.59 64.1016C176.588 67.8598 168.584 70 160 70C148.693 70 138.338 66.2794 129.973 59.9805L129.902 59.9297L129.832 59.875C121.51 53.6838 111.146 50.0001 100 50C72.3858 50 50 72.3858 50 100C50 111.192 53.716 121.588 59.9453 129.922L59.9688 129.957L59.9961 129.992C66.2848 138.353 70 148.702 70 160C70 169.156 67.5647 177.652 63.3281 184.977L59.5635 191.484C24.4792 175.954 9.14762e-06 140.837 0 100C0 44.7715 44.7715 0 100 0H200V54.6377Z" fill="#4900C8"/>
<path d="M231.333 197.998V2.22469H298.535V28.1424H261.151V80.2002H295.865V106.229H261.151V197.998H231.333Z" fill="#120030"/>
<path d="M317.174 197.998V2.22469H366.462C376.698 2.22469 384.338 4.22692 389.382 8.23137C394.426 12.2358 397.726 18.0942 399.284 25.8064C400.916 33.5187 401.732 42.9366 401.732 54.0601C401.732 65.5543 400.545 74.6014 398.171 81.2013C395.872 87.7271 391.125 92.1023 383.93 94.327C387.342 94.9203 390.198 96.3292 392.497 98.5539C394.797 100.704 396.651 103.893 398.06 108.12C399.47 112.273 400.471 117.649 401.064 124.249C401.732 130.775 402.066 138.784 402.066 148.276C402.066 149.017 402.066 151.094 402.066 154.505C402.066 157.916 402.066 161.958 402.066 166.63C402.14 171.227 402.214 175.825 402.288 180.423C402.362 185.02 402.474 188.951 402.622 192.214C402.77 195.476 402.956 197.404 403.178 197.998H373.36C373.138 197.627 372.952 195.736 372.804 192.325C372.73 188.839 372.619 184.427 372.47 179.088C372.396 173.749 372.322 168.001 372.248 161.846C372.248 155.691 372.248 149.648 372.248 143.715C372.248 137.709 372.248 132.406 372.248 127.809C372.248 121.95 371.803 117.538 370.913 114.572C370.097 111.531 368.539 109.418 366.24 108.231C364.014 107.045 360.788 106.34 356.56 106.118L346.991 105.562V197.998H317.174ZM347.103 82.4249H359.008C362.642 82.4249 365.387 81.6092 367.241 79.9777C369.169 78.3463 370.467 75.343 371.135 70.9677C371.877 66.5925 372.248 60.2892 372.248 52.0578V50.8343C372.248 43.9377 371.914 38.6355 371.246 34.9277C370.579 31.2199 369.169 28.6615 367.018 27.2525C364.942 25.8435 361.678 25.139 357.227 25.139H347.103V82.4249Z" fill="#120030"/>
<path d="M420.708 197.998V2.22469H486.352V27.9199H450.526V84.8721H484.572V110.011H450.526V172.303H487.688V197.998H420.708Z" fill="#120030"/>
<path d="M510.385 197.998V2.22469H540.203V197.998H510.385Z" fill="#120030"/>
<path d="M600.235 200C588.441 200 578.947 195.365 571.752 186.096C564.557 176.752 560.96 161.624 560.96 140.712V55.6173C560.96 46.8669 561.775 39.0434 563.407 32.1468C565.113 25.2503 567.709 19.429 571.196 14.683C574.756 9.86281 579.355 6.22914 584.992 3.78198C590.629 1.26066 597.416 0 605.353 0C613.957 0 620.966 1.29774 626.381 3.89321C631.796 6.41453 635.949 10.1224 638.842 15.0167C641.809 19.8369 643.849 25.7694 644.962 32.8142C646.074 39.8591 646.63 47.8309 646.63 56.7297V70.634H618.815V50.1668C618.815 41.3422 617.888 35.076 616.034 31.3682C614.254 27.6604 610.842 25.8064 605.798 25.8064C600.235 25.8064 596.378 27.9941 594.227 32.3693C592.076 36.6704 591 44.3456 591 55.3949V140.267C591 152.577 591.89 161.402 593.67 166.741C595.525 172.006 599.345 174.638 605.13 174.638C610.767 174.638 614.736 171.932 617.035 166.518C619.409 161.031 620.595 151.91 620.595 139.155V112.792H605.575V91.1012H646.63V197.998H633.279L628.717 178.754C627.086 185.502 623.599 190.73 618.259 194.438C612.993 198.146 606.984 200 600.235 200Z" fill="#120030"/>
<path d="M667.832 197.998V2.22469H697.65V81.4238H724.353V2.22469H754.171V197.998H724.353V107.008H697.65V197.998H667.832Z" fill="#120030"/>
<path d="M776.708 197.998V2.22469H819.098C828.963 2.22469 836.826 3.7449 842.686 6.78532C848.545 9.75157 852.773 14.4976 855.369 21.0234C858.04 27.475 859.375 35.9659 859.375 46.4961V52.5028C859.375 62.6622 858.04 71.0419 855.369 77.6418C852.773 84.1676 848.397 88.7282 842.24 91.3237C847.359 93.0293 851.438 96.1068 854.479 100.556C857.594 104.931 859.82 110.308 861.155 116.685C862.49 122.988 863.158 129.922 863.158 137.486V142.492C863.083 155.543 861.563 166.185 858.596 174.416C855.629 182.573 850.993 188.543 844.688 192.325C838.383 196.107 830.15 197.998 819.988 197.998H776.708ZM806.526 174.861H817.096C821.027 174.861 824.142 174.008 826.441 172.303C828.815 170.523 830.521 167.594 831.559 163.515C832.598 159.436 833.117 153.875 833.117 146.83V131.034C833.117 121.542 832.19 114.646 830.336 110.345C828.555 105.97 824.81 103.782 819.098 103.782H806.526V174.861ZM806.526 81.4238H817.541C820.137 81.4238 822.251 81.053 823.882 80.3114C825.514 79.5699 826.775 78.3092 827.665 76.5295C828.555 74.6756 829.149 72.1171 829.445 68.8543C829.816 65.5914 830.002 61.4386 830.002 56.396V44.6051C830.002 39.34 829.52 35.3356 828.555 32.5918C827.591 29.848 826.108 27.9941 824.105 27.03C822.176 26.066 819.655 25.584 816.539 25.584H806.526V81.4238Z" fill="#120030"/>
<path d="M879.353 197.998V2.22469H909.171V172.636H946.888V197.998H879.353Z" fill="#120030"/>
<path d="M963.021 197.998V2.22469H1028.66V27.9199H992.839V84.8721H1026.88V110.011H992.839V172.303H1030V197.998H963.021Z" fill="#120030"/>
</svg>
