<svg width="206" height="40" viewBox="0 0 206 40" fill="none" xmlns="http://www.w3.org/2000/svg">
<path d="M20 16C20.8939 16 21.7192 16.2935 22.3852 16.7891C25.0619 18.8046 28.3912 20 32 20C34.9143 20 37.6466 19.2207 40 17.8594V40H20C19.2977 40 18.6038 39.9634 17.9201 39.8928C19.2436 37.5637 20 34.8703 20 32C20 28.3944 18.8068 25.0677 16.7945 22.3922C16.2958 21.7249 16 20.8971 16 20C16 17.7909 17.7909 16 20 16Z" fill="#4900C8"/>
<path d="M40 10.9275L36.9953 12.6656L36.718 12.8203C35.3176 13.572 33.7167 14 32 14C29.7386 14 27.6677 13.2559 25.9945 11.9961L25.9805 11.9859L25.9664 11.975C24.302 10.7368 22.2292 10 20 10C14.4772 10 10 14.4772 10 20C10 22.2383 10.7432 24.3177 11.9891 25.9844L11.9938 25.9914L11.9992 25.9984C13.257 27.6707 14 29.7403 14 32C14 33.8312 13.5129 35.5305 12.6656 36.9953L11.9127 38.2969C4.89585 35.1908 1.82952e-06 28.1674 0 20C0 8.95431 8.95431 0 20 0H40V10.9275Z" fill="#4900C8"/>
<path d="M46.2666 39.5995V0.444939H59.7069V5.62848H52.2302V16.04H59.1729V21.2458H52.2302V39.5995H46.2666Z" fill="#FCFCFC"/>
<path d="M63.4346 39.5995V0.444939H73.2923C75.3395 0.444939 76.8675 0.845384 77.8763 1.64627C78.885 2.44716 79.5452 3.61884 79.8567 5.16129C80.1831 6.70374 80.3463 8.58732 80.3463 10.812C80.3463 13.1109 80.1089 14.9203 79.6342 16.2403C79.1743 17.5454 78.2249 18.4205 76.7859 18.8654C77.4683 18.9841 78.0395 19.2658 78.4993 19.7108C78.9592 20.1409 79.3301 20.7786 79.6119 21.624C79.8938 22.4546 80.0941 23.5298 80.2128 24.8498C80.3463 26.155 80.413 27.7568 80.413 29.6552C80.413 29.8035 80.413 30.2188 80.413 30.901C80.413 31.5832 80.413 32.3915 80.413 33.3259C80.4279 34.2455 80.4427 35.165 80.4575 36.0845C80.4724 37.0041 80.4946 37.7901 80.5243 38.4427C80.554 39.0953 80.591 39.4809 80.6355 39.5995H74.672C74.6275 39.5254 74.5904 39.1472 74.5607 38.465C74.5459 37.7679 74.5236 36.8854 74.4939 35.8176C74.4791 34.7497 74.4643 33.6003 74.4494 32.3693C74.4494 31.1383 74.4494 29.9295 74.4494 28.743C74.4494 27.5417 74.4494 26.4813 74.4494 25.5617C74.4494 24.3901 74.3604 23.5076 74.1824 22.9143C74.0192 22.3063 73.7077 21.8836 73.2478 21.6463C72.8028 21.409 72.1575 21.2681 71.3119 21.2236L69.3982 21.1123V39.5995H63.4346ZM69.4204 16.485H71.8014C72.5283 16.485 73.0772 16.3218 73.4481 15.9955C73.8338 15.6693 74.0934 15.0686 74.2269 14.1935C74.3753 13.3185 74.4494 12.0578 74.4494 10.4116V10.1669C74.4494 8.78754 74.3827 7.7271 74.2492 6.98554C74.1157 6.24397 73.8338 5.73229 73.4036 5.4505C72.9882 5.16871 72.3355 5.02781 71.4454 5.02781H69.4204V16.485Z" fill="#FCFCFC"/>
<path d="M84.1416 39.5995V0.444939H97.2704V5.58398H90.1052V16.9744H96.9144V22.0022H90.1052V34.4605H97.5374V39.5995H84.1416Z" fill="#FCFCFC"/>
<path d="M102.077 39.5995V0.444939H108.04V39.5995H102.077Z" fill="#FCFCFC"/>
<path d="M120.047 40C117.688 40 115.789 39.073 114.35 37.2191C112.911 35.3504 112.192 32.3248 112.192 28.1424V11.1235C112.192 9.37338 112.355 7.80868 112.681 6.42936C113.023 5.05005 113.542 3.8858 114.239 2.9366C114.951 1.97256 115.871 1.24583 116.998 0.756396C118.126 0.252132 119.483 0 121.07 0C122.791 0 124.193 0.259548 125.276 0.778643C126.359 1.28291 127.19 2.02447 127.768 3.00334C128.362 3.96737 128.77 5.15387 128.992 6.56285C129.215 7.97182 129.326 9.56618 129.326 11.3459V14.1268H123.763V10.0334C123.763 8.26845 123.578 7.0152 123.207 6.27364C122.851 5.53207 122.168 5.16129 121.159 5.16129C120.047 5.16129 119.275 5.59881 118.845 6.47386C118.415 7.33407 118.2 8.86911 118.2 11.079V28.0534C118.2 30.5154 118.378 32.2803 118.734 33.3482C119.105 34.4012 119.869 34.9277 121.026 34.9277C122.153 34.9277 122.947 34.3863 123.407 33.3037C123.882 32.2061 124.119 30.3819 124.119 27.8309V22.5584H121.115V18.2202H129.326V39.5995H126.656L125.743 35.7508C125.417 37.1005 124.72 38.1461 123.652 38.8876C122.598 39.6292 121.397 40 120.047 40Z" fill="#FCFCFC"/>
<path d="M133.566 39.5995V0.444939H139.53V16.2848H144.87V0.444939H150.834V39.5995H144.87V21.4016H139.53V39.5995H133.566Z" fill="#FCFCFC"/>
<path d="M155.341 39.5995V0.444939H163.82C165.793 0.444939 167.365 0.74898 168.537 1.35706C169.709 1.95031 170.555 2.89952 171.074 4.20467C171.608 5.49499 171.875 7.19318 171.875 9.29922V10.5006C171.875 12.5324 171.608 14.2084 171.074 15.5284C170.555 16.8335 169.679 17.7456 168.448 18.2647C169.472 18.6059 170.288 19.2214 170.896 20.1112C171.519 20.9863 171.964 22.0615 172.231 23.337C172.498 24.5977 172.631 25.9844 172.631 27.4972V28.4983C172.617 31.1086 172.312 33.2369 171.719 34.8832C171.126 36.5146 170.199 37.7086 168.938 38.465C167.677 39.2214 166.03 39.5995 163.998 39.5995H155.341ZM161.305 34.9722H163.419C164.205 34.9722 164.828 34.8016 165.288 34.4605C165.763 34.1046 166.104 33.5187 166.312 32.703C166.519 31.8873 166.623 30.7749 166.623 29.366V26.2069C166.623 24.3085 166.438 22.9292 166.067 22.069C165.711 21.1939 164.962 20.7564 163.82 20.7564H161.305V34.9722ZM161.305 16.2848H163.508C164.027 16.2848 164.45 16.2106 164.776 16.0623C165.103 15.914 165.355 15.6618 165.533 15.3059C165.711 14.9351 165.83 14.4234 165.889 13.7709C165.963 13.1183 166 12.2877 166 11.2792V8.92102C166 7.868 165.904 7.06711 165.711 6.51835C165.518 5.96959 165.221 5.59881 164.821 5.40601C164.435 5.2132 163.931 5.1168 163.308 5.1168H161.305V16.2848Z" fill="#FCFCFC"/>
<path d="M175.87 39.5995V0.444939H181.834V34.5272H189.378V39.5995H175.87Z" fill="#FCFCFC"/>
<path d="M192.604 39.5995V0.444939H205.733V5.58398H198.568V16.9744H205.377V22.0022H198.568V34.4605H206V39.5995H192.604Z" fill="#FCFCFC"/>
</svg>
