<svg width="16" height="16" viewBox="0 0 16 16" fill="none" xmlns="http://www.w3.org/2000/svg">
    <path d="M8 6.4C8.35757 6.4 8.68766 6.51741 8.95406 6.71563C10.0248 7.52185 11.3565 8 12.8 8C13.9657 8 15.0586 7.6883 16 7.14375V16H8C7.71914 16 7.44167 15.9854 7.16828 15.9572C7.69765 15.0256 8 13.9481 8 12.8C8 11.3578 7.52274 10.0271 6.71781 8.95688C6.51831 8.68998 6.4 8.35885 6.4 8C6.4 7.11634 7.11634 6.4 8 6.4Z" fill="#4900C8"/>
    <path d="M16 4.37104L14.7981 5.06625L14.6872 5.12813C14.127 5.42879 13.4867 5.6 12.8 5.6C11.8954 5.6 11.0671 5.30236 10.3978 4.79844L10.3922 4.79438L10.3866 4.79C9.72081 4.2947 8.89171 4 8 4C5.79086 4 4 5.79086 4 8C4 8.89534 4.29728 9.72706 4.79563 10.3938L4.7975 10.3966L4.79969 10.3994C5.30278 11.0683 5.6 11.8961 5.6 12.8C5.6 13.5325 5.40518 14.2122 5.06625 14.7981L4.76505 15.3188C1.95832 14.0764 0 11.2669 0 8C0 3.58172 3.58172 0 8 0H16V4.37104Z" fill="#4900C8"/>
</svg>
